<svg xmlns="http://www.w3.org/2000/svg" version="1.1" xmlns:xlink="http://www.w3.org/1999/xlink" xmlns:svgjs="http://svgjs.dev/svgjs" viewBox="0 0 23.70806184218964 6.5790396553609565"><g transform="matrix(0.7227359233227313,0,0,0.7227359233227313,6.8236496758596825,2.5909232841967262)"><g clip-path="url(#SvgjsClipPath28368)"><g clip-path="url(#SvgjsClipPath283662cdb91d7-b745-4e61-aafd-df73b1dba0ef)"><path d=" M -3.63187573106563 -0.3425765976000733 L -2.7828803965318096 1.2365212336926155 L -2.4144800541305456 1.0833001821939081 C -2.7008275929969825 0.9217063956406264 -2.9528469181396653 0.724109848352676 -3.1730498500749658 0.5097678309555771 L -3.63187573106563 -0.3425765976000733 Z" fill="#4679f9" transform="matrix(1,0,0,1,0,0)" fill-rule="nonzero"></path></g><g clip-path="url(#SvgjsClipPath283662cdb91d7-b745-4e61-aafd-df73b1dba0ef)"><path d=" M -0.4016745470109151 0.788579908272897 L -1.0673069838495621 1.1469329686086722 L -0.40083727350545795 0.788579908272897 Z" fill="#4679f9" transform="matrix(1,0,0,1,0,0)" fill-rule="nonzero"></path></g><g clip-path="url(#SvgjsClipPath283662cdb91d7-b745-4e61-aafd-df73b1dba0ef)"><path d=" M -1.6081856683750533 1.4073250288059287 L -1.6165584034296274 1.438304148507853 L -1.6173956769350846 1.4433277895405976 L -1.6106974888914252 1.4391414220133105 L -1.5696710871240125 1.4173723108714176 C -1.580555642694959 1.4148604903550452 -1.5914401982659054 1.4115113963332158 -1.602324753836851 1.4089995758168434 C -1.604836574353223 1.4081623023113858 -1.606511121364138 1.4081623023113858 -1.6081856683750533 1.4073250288059287 Z" fill="#4679f9" transform="matrix(1,0,0,1,0,0)" fill-rule="nonzero"></path></g><g clip-path="url(#SvgjsClipPath283662cdb91d7-b745-4e61-aafd-df73b1dba0ef)"><path d=" M -1.1962471036900042 2.6356052613119605 C -1.3360717791013927 2.5543897312825905 -1.5520883435094062 2.537644261173443 -1.711170309546315 2.5334578936461556 C -1.5889283777495327 2.5560642782935057 -1.4650118989418348 2.580345209951771 -1.3461190611668812 2.623046158730099 C -1.304255385894011 2.638954355333789 -1.2623917106211398 2.6565370989483954 -1.2263889498864713 2.682492577617576 C -1.2113180267882382 2.6942144066939795 -1.197921650700919 2.7067735092758403 -1.1903861891518028 2.7226817058795323 C -1.1811761805917707 2.7469626375377967 -1.206294385755493 2.76538265465786 -1.2263889498864713 2.778779030745179 C -1.2632289841265973 2.801385415392529 -1.3042553858940114 2.816456338490762 -1.3469563346723392 2.829015441072624 C -1.4348700527453677 2.8549709197418034 -1.5261328648402261 2.8700418428400365 -1.6173956769350846 2.880926398410984 C -1.863554087539565 2.9085564240910777 -2.1130615921658755 2.9093936975965358 -2.359220002770356 2.8851127659382705 C -2.4513200883706716 2.875902757378239 -2.5425829004655305 2.861669107785464 -2.6313338920440166 2.839062723138113 C -2.6874312169096637 2.82399180003988 -2.7468776357971407 2.8055717829198166 -2.792927678597298 2.773755389712435 C -2.808835875200989 2.7611962871305735 -2.8255813453101375 2.7469626375377976 -2.8230695247937656 2.727705346912277 C -2.8188831572664785 2.706773509275841 -2.795439499113671 2.6875162186503205 -2.7761822084881502 2.6749571160684598 C -2.751901276829885 2.6590489194647686 -2.7251085246552478 2.64565254337745 -2.6966412254696954 2.633930714301046 C -2.612076601418496 2.5979279535663773 -2.519139242312723 2.57448429541357 -2.428713703723322 2.5552270047880494 C -2.3977345840213973 2.5485288167443896 -2.366755464319473 2.5426679022061878 -2.3357763446175484 2.536806987667987 C -2.3994091310323125 2.538481534678901 -2.462204643941619 2.543505175711646 -2.5250001568509246 2.55187791076622 C -2.624635704000357 2.566111560358996 -2.8473504564520304 2.602951594599123 -2.8816786701757846 2.712634423814044 C -2.9218677984377406 2.8884618599601017 -2.491509216632628 2.955443740396695 -2.369267284835846 2.971351937000385 C -2.179206199097012 2.9956328686586504 -1.9874705663472634 2.999819236185937 -1.7965722071029726 2.9872601336040763 C -1.6693066342734453 2.978050125044044 -1.5420410614439182 2.962141928440353 -1.4172873091307623 2.9303255352329725 C -1.3293735910577333 2.905207330069249 -1.2088062062718654 2.8725536633564106 -1.1468479668680165 2.795524500854328 C -1.0999606505624007 2.7327289879450207 -1.1376379583079848 2.669933475035714 -1.1962471036900042 2.6356052613119605 Z" fill="#d6dbea" transform="matrix(1,0,0,1,0,0)" fill-rule="nonzero"></path></g><g clip-path="url(#SvgjsClipPath283662cdb91d7-b745-4e61-aafd-df73b1dba0ef)"><path d=" M -3.63187573106563 -0.3425765976000733 L -3.1730498500749653 0.5097678309555775 C -2.952846918139665 0.7241098483526767 -2.7008275929969825 0.9217063956406268 -2.4144800541305456 1.0833001821939086 L -1.4164500356253042 0.6680125234870291 L -1.4172873091307618 0.673036164519774 L -1.6081856683750533 1.4081623023113867 C -1.606511121364138 1.4089995758168439 -1.6039993008477662 1.4089995758168439 -1.602324753836851 1.4098368493223015 C -1.5914401982659045 1.4123486698386738 -1.580555642694958 1.4156977638605028 -1.5696710871240125 1.4182095843768752 C -1.5696710871240125 1.4182095843768752 -1.5696710871240125 1.4182095843768752 -1.5696710871240125 1.4182095843768752 L -1.0673069838495621 1.1477702421141294 L -0.4016745470109151 0.7894171817783548 L -0.3999999999999999 0.788579908272897 L -3.63187573106563 -0.3425765976000733 Z" fill="#4679f9" transform="matrix(1,0,0,1,0,0)" fill-rule="nonzero"></path></g><g clip-path="url(#SvgjsClipPath283662cdb91d7-b745-4e61-aafd-df73b1dba0ef)"><path d=" M -1.176152539559026 -0.44304941825496336 C -1.176152539559026 -0.10178830654090898 -1.4527992748725458 0.1748584287726107 -1.7940603865865998 0.1748584287726107 C -2.1353214983006534 0.1748584287726107 -2.4119682336141737 -0.10178830654090898 -2.4119682336141737 -0.44304941825496336 C -2.4119682336141737 -0.7843105299690176 -2.1353214983006534 -1.0609572652825372 -1.7940603865865998 -1.0609572652825372 C -1.4527992748725458 -1.0609572652825372 -1.176152539559026 -0.7843105299690176 -1.176152539559026 -0.44304941825496336 Z" fill="#4679f9" transform="matrix(1,0,0,1,0,0)" fill-rule="nonzero"></path></g><g clip-path="url(#SvgjsClipPath283662cdb91d7-b745-4e61-aafd-df73b1dba0ef)"><path d=" M -2.4144800541305456 1.0833001821939086 L -2.7828803965318096 1.236521233692616 L -2.783717670037267 1.2373585071980735 L -2.713386695578844 1.368810447554888 C -2.713386695578844 1.368810447554888 -2.712549422073386 1.3679731740494303 -2.712549422073386 1.3679731740494303 C -2.712549422073386 1.3679731740494303 -2.712549422073386 1.3679731740494303 -2.712549422073386 1.3679731740494303 L -2.7142239690843013 1.365461353533058 L -2.3031226779047094 1.1444211480923 L -1.4164500356253042 0.6680125234870291 L -2.4144800541305456 1.0833001821939086 Z" fill="#2952b7" transform="matrix(1,0,0,1,0,0)" fill-rule="nonzero"></path></g><g clip-path="url(#SvgjsClipPath283662cdb91d7-b745-4e61-aafd-df73b1dba0ef)"><path d=" M -2.3022854043992513 1.1444211480922994 L -2.7133866955788437 1.365461353533058 L -2.437086438777896 1.879547285883912 L -2.4354118917669814 1.8828963799057423 L -1.9983551219182092 2.695888953704894 L -1.9615150876780834 2.764545381152402 L -1.6173956769350841 1.4433277895405976 L -1.6165584034296274 1.438304148507853 L -1.6081856683750533 1.4073250288059287 L -1.4172873091307618 0.673036164519774 L -1.4164500356253042 0.6680125234870291 Z" fill="#f9b200" transform="matrix(1,0,0,1,0,0)" fill-rule="nonzero"></path></g></g><g><path d=" M 0.378 0.23549999999999982 L 0.378 0.4079999999999999 L 0.7155 0.4079999999999999 L 0.7155 0.6315 L 0.378 0.6315 L 0.378 0.8219999999999998 L 0.7605000000000001 0.8219999999999998 L 0.7605000000000001 1.0574999999999999 L 0.084 1.0574999999999999 L 0.084 -2.220446049250313e-16 L 0.7605000000000001 -2.220446049250313e-16 L 0.7605000000000001 0.23549999999999982 L 0.378 0.23549999999999982 M 1.98296044921875 -2.220446049250313e-16 L 1.61846044921875 1.0574999999999999 L 1.24196044921875 1.0574999999999999 L 0.87596044921875 -2.220446049250313e-16 L 1.19096044921875 -2.220446049250313e-16 L 1.43096044921875 0.7634999999999998 L 1.6694604492187501 -2.220446049250313e-16 L 1.98296044921875 -2.220446049250313e-16 M 2.416474365234375 0.23549999999999982 L 2.416474365234375 0.4079999999999999 L 2.753974365234375 0.4079999999999999 L 2.753974365234375 0.6315 L 2.416474365234375 0.6315 L 2.416474365234375 0.8219999999999998 L 2.798974365234375 0.8219999999999998 L 2.798974365234375 1.0574999999999999 L 2.122474365234375 1.0574999999999999 L 2.122474365234375 -2.220446049250313e-16 L 2.798974365234375 -2.220446049250313e-16 L 2.798974365234375 0.23549999999999982 L 2.416474365234375 0.23549999999999982 M 3.9719348144531255 1.0574999999999999 L 3.677934814453125 1.0574999999999999 L 3.2864348144531252 0.4664999999999999 L 3.2864348144531252 1.0574999999999999 L 2.992434814453125 1.0574999999999999 L 2.992434814453125 -2.220446049250313e-16 L 3.2864348144531252 -2.220446049250313e-16 L 3.677934814453125 0.5984999999999998 L 3.677934814453125 -2.220446049250313e-16 L 3.9719348144531255 -2.220446049250313e-16 L 3.9719348144531255 1.0574999999999999 M 4.984456787109375 -2.220446049250313e-16 L 4.984456787109375 0.23399999999999987 L 4.702456787109375 0.23399999999999987 L 4.702456787109375 1.0574999999999999 L 4.408456787109375 1.0574999999999999 L 4.408456787109375 0.23399999999999987 L 4.129456787109375 0.23399999999999987 L 4.129456787109375 -2.220446049250313e-16 L 4.984456787109375 -2.220446049250313e-16 M 6.376462646484375 -2.220446049250313e-16 L 6.376462646484375 1.0574999999999999 L 6.082462646484375 1.0574999999999999 L 6.082462646484375 0.47399999999999987 L 5.882962646484375 1.0574999999999999 L 5.636962646484375 1.0574999999999999 L 5.435962646484375 0.4694999999999999 L 5.435962646484375 1.0574999999999999 L 5.141962646484375 1.0574999999999999 L 5.141962646484375 -2.220446049250313e-16 L 5.497462646484375 -2.220446049250313e-16 L 5.762962646484375 0.6869999999999998 L 6.022462646484375 -2.220446049250313e-16 L 6.376462646484375 -2.220446049250313e-16 M 7.261458984375 0.8849999999999999 L 6.886458984375 0.8849999999999999 L 6.829458984375 1.0574999999999999 L 6.520458984375 1.0574999999999999 L 6.905958984375 -2.220446049250313e-16 L 7.244958984375001 -2.220446049250313e-16 L 7.628958984375 1.0574999999999999 L 7.318458984375001 1.0574999999999999 L 7.261458984375 0.8849999999999999 M 7.187958984375 0.6599999999999999 L 7.073958984375 0.31799999999999984 L 6.9614589843750005 0.6599999999999999 L 7.187958984375 0.6599999999999999 M 8.56946630859375 -2.220446049250313e-16 L 8.56946630859375 0.23399999999999987 L 8.28746630859375 0.23399999999999987 L 8.28746630859375 1.0574999999999999 L 7.99346630859375 1.0574999999999999 L 7.99346630859375 0.23399999999999987 L 7.71446630859375 0.23399999999999987 L 7.71446630859375 -2.220446049250313e-16 L 8.56946630859375 -2.220446049250313e-16 M 9.26247216796875 1.0574999999999999 L 9.05247216796875 0.6674999999999999 L 9.02097216796875 0.6674999999999999 L 9.02097216796875 1.0574999999999999 L 8.72697216796875 1.0574999999999999 L 8.72697216796875 -2.220446049250313e-16 L 9.19047216796875 -2.220446049250313e-16 Q 9.317972167968751 -2.220446049250313e-16 9.40647216796875 0.0442499999999999 Q 9.49497216796875 0.08849999999999991 9.53997216796875 0.16574999999999984 Q 9.58497216796875 0.24299999999999988 9.58497216796875 0.33899999999999986 Q 9.58497216796875 0.44699999999999984 9.52572216796875 0.5287499999999998 Q 9.46647216796875 0.6104999999999998 9.35247216796875 0.6449999999999998 L 9.59097216796875 1.0574999999999999 L 9.26247216796875 1.0574999999999999 M 9.02097216796875 0.4664999999999999 L 9.16647216796875 0.4664999999999999 Q 9.226472167968751 0.4664999999999999 9.25647216796875 0.43799999999999983 Q 9.28647216796875 0.40949999999999986 9.28647216796875 0.3554999999999998 Q 9.28647216796875 0.3044999999999999 9.25572216796875 0.2752499999999999 Q 9.224972167968751 0.24599999999999989 9.16647216796875 0.24599999999999989 L 9.02097216796875 0.24599999999999989 L 9.02097216796875 0.4664999999999999 M 10.06048828125 -2.220446049250313e-16 L 10.06048828125 1.0574999999999999 L 9.76648828125 1.0574999999999999 L 9.76648828125 -2.220446049250313e-16 L 10.06048828125 -2.220446049250313e-16 M 10.93796337890625 1.0574999999999999 L 10.73246337890625 0.7589999999999999 L 10.55696337890625 1.0574999999999999 L 10.22246337890625 1.0574999999999999 L 10.56596337890625 0.5159999999999999 L 10.210463378906251 -2.220446049250313e-16 L 10.55696337890625 -2.220446049250313e-16 L 10.75646337890625 0.2909999999999998 L 10.92746337890625 -2.220446049250313e-16 L 11.26196337890625 -2.220446049250313e-16 L 10.92296337890625 0.5324999999999999 L 11.284463378906251 1.0574999999999999 L 10.93796337890625 1.0574999999999999" fill="#2a5af4" fill-rule="nonzero"></path></g><g><path d=" M 0.498 1.4066999999999998 L 0.31575000000000003 1.7591999999999999 L 0.31575000000000003 1.9331999999999998 L 0.1875 1.9331999999999998 L 0.1875 1.7591999999999999 L 0.00525 1.4066999999999998 L 0.15075 1.4066999999999998 L 0.25275000000000003 1.6271999999999998 L 0.354 1.4066999999999998 L 0.498 1.4066999999999998 M 0.6806403808593751 1.9039499999999998 Q 0.618765380859375 1.8694499999999998 0.582390380859375 1.8075749999999997 Q 0.5460153808593751 1.7456999999999998 0.5460153808593751 1.6684499999999998 Q 0.5460153808593751 1.5911999999999997 0.582390380859375 1.5296999999999998 Q 0.618765380859375 1.4681999999999997 0.6806403808593751 1.4336999999999998 Q 0.742515380859375 1.3991999999999998 0.816765380859375 1.3991999999999998 Q 0.891015380859375 1.3991999999999998 0.952890380859375 1.4336999999999998 Q 1.014765380859375 1.4681999999999997 1.0503903808593749 1.5296999999999998 Q 1.0860153808593749 1.5911999999999997 1.0860153808593749 1.6684499999999998 Q 1.0860153808593749 1.7456999999999998 1.050015380859375 1.8075749999999997 Q 1.014015380859375 1.8694499999999998 0.952515380859375 1.9039499999999998 Q 0.891015380859375 1.9384499999999998 0.816765380859375 1.9384499999999998 Q 0.742515380859375 1.9384499999999998 0.6806403808593751 1.9039499999999998 M 0.917640380859375 1.7794499999999998 Q 0.955515380859375 1.7374499999999997 0.955515380859375 1.6684499999999998 Q 0.955515380859375 1.5986999999999998 0.917640380859375 1.5570749999999998 Q 0.8797653808593751 1.5154499999999997 0.816765380859375 1.5154499999999997 Q 0.753015380859375 1.5154499999999997 0.715140380859375 1.5566999999999998 Q 0.677265380859375 1.5979499999999998 0.677265380859375 1.6684499999999998 Q 0.677265380859375 1.7381999999999997 0.715140380859375 1.7798249999999998 Q 0.753015380859375 1.8214499999999998 0.816765380859375 1.8214499999999998 Q 0.8797653808593751 1.8214499999999998 0.917640380859375 1.7794499999999998 M 1.3012734375000001 1.4066999999999998 L 1.3012734375000001 1.7216999999999998 Q 1.3012734375000001 1.7689499999999998 1.3245234375000001 1.7944499999999999 Q 1.3477734375000001 1.8199499999999997 1.3927734375 1.8199499999999997 Q 1.4377734375 1.8199499999999997 1.4617734375 1.7944499999999999 Q 1.4857734375 1.7689499999999998 1.4857734375 1.7216999999999998 L 1.4857734375 1.4066999999999998 L 1.6140234375 1.4066999999999998 L 1.6140234375 1.7209499999999998 Q 1.6140234375 1.7914499999999998 1.5840234375 1.8401999999999998 Q 1.5540234375000002 1.88895 1.5033984375 1.9136999999999997 Q 1.4527734375 1.9384499999999998 1.3905234375 1.9384499999999998 Q 1.3282734375 1.9384499999999998 1.2791484375 1.9140749999999997 Q 1.2300234375 1.8896999999999997 1.2015234375000001 1.8405749999999999 Q 1.1730234375 1.7914499999999998 1.1730234375 1.7209499999999998 L 1.1730234375 1.4066999999999998 L 1.3012734375000001 1.4066999999999998 M 1.9905362548828125 1.9331999999999998 L 1.8810362548828126 1.7344499999999998 L 1.8502862548828125 1.7344499999999998 L 1.8502862548828125 1.9331999999999998 L 1.7220362548828125 1.9331999999999998 L 1.7220362548828125 1.4066999999999998 L 1.9372862548828125 1.4066999999999998 Q 1.9995362548828126 1.4066999999999998 2.0434112548828125 1.4284499999999998 Q 2.0872862548828124 1.4501999999999997 2.1090362548828123 1.4880749999999998 Q 2.1307862548828127 1.52595 2.1307862548828127 1.57245 Q 2.1307862548828127 1.6249499999999997 2.1011612548828125 1.6662 Q 2.0715362548828127 1.7074499999999997 2.0137862548828127 1.7247 L 2.1352862548828124 1.9331999999999998 L 1.9905362548828125 1.9331999999999998 M 1.8502862548828125 1.6437 L 1.9297862548828126 1.6437 Q 1.9650362548828126 1.6437 1.9826612548828124 1.6264499999999997 Q 2.0002862548828126 1.6091999999999997 2.0002862548828126 1.5776999999999999 Q 2.0002862548828126 1.5476999999999999 1.9826612548828124 1.5304499999999999 Q 1.9650362548828126 1.5131999999999999 1.9297862548828126 1.5131999999999999 L 1.8502862548828125 1.5131999999999999 L 1.8502862548828125 1.6437 M 2.5320007324218747 1.4066999999999998 L 2.5320007324218747 1.7216999999999998 Q 2.5320007324218747 1.7689499999999998 2.5552507324218747 1.7944499999999999 Q 2.5785007324218747 1.8199499999999997 2.623500732421875 1.8199499999999997 Q 2.668500732421875 1.8199499999999997 2.692500732421875 1.7944499999999999 Q 2.716500732421875 1.7689499999999998 2.716500732421875 1.7216999999999998 L 2.716500732421875 1.4066999999999998 L 2.844750732421875 1.4066999999999998 L 2.844750732421875 1.7209499999999998 Q 2.844750732421875 1.7914499999999998 2.814750732421875 1.8401999999999998 Q 2.784750732421875 1.88895 2.734125732421875 1.9136999999999997 Q 2.6835007324218747 1.9384499999999998 2.621250732421875 1.9384499999999998 Q 2.559000732421875 1.9384499999999998 2.509875732421875 1.9140749999999997 Q 2.4607507324218747 1.8896999999999997 2.432250732421875 1.8405749999999999 Q 2.4037507324218748 1.7914499999999998 2.4037507324218748 1.7209499999999998 L 2.4037507324218748 1.4066999999999998 L 2.5320007324218747 1.4066999999999998 M 3.081013549804687 1.8341999999999998 L 3.2490135498046873 1.8341999999999998 L 3.2490135498046873 1.9331999999999998 L 2.952763549804687 1.9331999999999998 L 2.952763549804687 1.4066999999999998 L 3.081013549804687 1.4066999999999998 L 3.081013549804687 1.8341999999999998 M 3.7072558593749996 1.4066999999999998 L 3.7072558593749996 1.5094499999999997 L 3.5677558593749996 1.5094499999999997 L 3.5677558593749996 1.9331999999999998 L 3.4395058593749996 1.9331999999999998 L 3.4395058593749996 1.5094499999999997 L 3.3000058593749992 1.5094499999999997 L 3.3000058593749992 1.4066999999999998 L 3.7072558593749996 1.4066999999999998 M 3.9180084228515617 1.4066999999999998 L 3.9180084228515617 1.9331999999999998 L 3.7897584228515617 1.9331999999999998 L 3.7897584228515617 1.4066999999999998 L 3.9180084228515617 1.4066999999999998 M 4.625245605468749 1.4066999999999998 L 4.625245605468749 1.9331999999999998 L 4.496995605468749 1.9331999999999998 L 4.496995605468749 1.6174499999999998 L 4.379245605468749 1.9331999999999998 L 4.2757456054687495 1.9331999999999998 L 4.157245605468749 1.6166999999999998 L 4.157245605468749 1.9331999999999998 L 4.028995605468749 1.9331999999999998 L 4.028995605468749 1.4066999999999998 L 4.180495605468749 1.4066999999999998 L 4.328245605468749 1.7711999999999999 L 4.474495605468749 1.4066999999999998 L 4.625245605468749 1.4066999999999998 M 5.063267944335936 1.8401999999999998 L 4.866767944335936 1.8401999999999998 L 4.8352679443359365 1.9331999999999998 L 4.701017944335936 1.9331999999999998 L 4.891517944335936 1.4066999999999998 L 5.040017944335936 1.4066999999999998 L 5.230517944335936 1.9331999999999998 L 5.094767944335937 1.9331999999999998 L 5.063267944335936 1.8401999999999998 M 5.030267944335936 1.7411999999999999 L 4.965017944335936 1.5484499999999999 L 4.900517944335936 1.7411999999999999 L 5.030267944335936 1.7411999999999999 M 5.685017578124999 1.4066999999999998 L 5.685017578124999 1.5094499999999997 L 5.545517578124999 1.5094499999999997 L 5.545517578124999 1.9331999999999998 L 5.417267578124998 1.9331999999999998 L 5.417267578124998 1.5094499999999997 L 5.277767578124998 1.5094499999999997 L 5.277767578124998 1.4066999999999998 L 5.685017578124999 1.4066999999999998 M 5.895770141601561 1.5094499999999997 L 5.895770141601561 1.6159499999999998 L 6.067520141601561 1.6159499999999998 L 6.067520141601561 1.7149499999999998 L 5.895770141601561 1.7149499999999998 L 5.895770141601561 1.83045 L 6.090020141601561 1.83045 L 6.090020141601561 1.9331999999999998 L 5.767520141601561 1.9331999999999998 L 5.767520141601561 1.4066999999999998 L 6.090020141601561 1.4066999999999998 L 6.090020141601561 1.5094499999999997 L 5.895770141601561 1.5094499999999997 M 6.496513183593748 1.5094499999999997 L 6.496513183593748 1.6159499999999998 L 6.668263183593748 1.6159499999999998 L 6.668263183593748 1.7149499999999998 L 6.496513183593748 1.7149499999999998 L 6.496513183593748 1.83045 L 6.690763183593748 1.83045 L 6.690763183593748 1.9331999999999998 L 6.368263183593748 1.9331999999999998 L 6.368263183593748 1.4066999999999998 L 6.690763183593748 1.4066999999999998 L 6.690763183593748 1.5094499999999997 L 6.496513183593748 1.5094499999999997 M 7.286274902343748 1.4066999999999998 L 7.099524902343748 1.9331999999999998 L 6.939024902343748 1.9331999999999998 L 6.752274902343748 1.4066999999999998 L 6.888774902343748 1.4066999999999998 L 7.0192749023437475 1.8041999999999998 L 7.150524902343748 1.4066999999999998 L 7.286274902343748 1.4066999999999998 M 7.485760253906248 1.5094499999999997 L 7.485760253906248 1.6159499999999998 L 7.657510253906247 1.6159499999999998 L 7.657510253906247 1.7149499999999998 L 7.485760253906248 1.7149499999999998 L 7.485760253906248 1.83045 L 7.680010253906247 1.83045 L 7.680010253906247 1.9331999999999998 L 7.357510253906248 1.9331999999999998 L 7.357510253906248 1.4066999999999998 L 7.680010253906247 1.4066999999999998 L 7.680010253906247 1.5094499999999997 L 7.485760253906248 1.5094499999999997 M 8.252271972656247 1.9331999999999998 L 8.124021972656248 1.9331999999999998 L 7.909521972656248 1.60845 L 7.909521972656248 1.9331999999999998 L 7.781271972656247 1.9331999999999998 L 7.781271972656247 1.4066999999999998 L 7.909521972656248 1.4066999999999998 L 8.124021972656248 1.7329499999999998 L 8.124021972656248 1.4066999999999998 L 8.252271972656247 1.4066999999999998 L 8.252271972656247 1.9331999999999998 M 8.742032592773436 1.4066999999999998 L 8.742032592773436 1.5094499999999997 L 8.602532592773436 1.5094499999999997 L 8.602532592773436 1.9331999999999998 L 8.474282592773436 1.9331999999999998 L 8.474282592773436 1.5094499999999997 L 8.334782592773436 1.5094499999999997 L 8.334782592773436 1.4066999999999998 L 8.742032592773436 1.4066999999999998 M 9.013516479492187 1.5300749999999999 Q 9.047266479492187 1.4689499999999998 9.107641479492187 1.4348249999999998 Q 9.168016479492186 1.4006999999999998 9.244516479492187 1.4006999999999998 Q 9.338266479492187 1.4006999999999998 9.405016479492186 1.4501999999999997 Q 9.471766479492187 1.4996999999999998 9.494266479492186 1.5851999999999997 L 9.353266479492188 1.5851999999999997 Q 9.337516479492187 1.5521999999999998 9.308641479492186 1.5349499999999998 Q 9.279766479492187 1.5176999999999998 9.243016479492187 1.5176999999999998 Q 9.183766479492187 1.5176999999999998 9.147016479492187 1.5589499999999998 Q 9.110266479492187 1.6001999999999998 9.110266479492187 1.6691999999999998 Q 9.110266479492187 1.7381999999999997 9.147016479492187 1.7794499999999998 Q 9.183766479492187 1.8206999999999998 9.243016479492187 1.8206999999999998 Q 9.279766479492187 1.8206999999999998 9.308641479492186 1.8034499999999998 Q 9.337516479492187 1.7861999999999998 9.353266479492188 1.7531999999999999 L 9.494266479492186 1.7531999999999999 Q 9.471766479492187 1.8386999999999998 9.405016479492186 1.8878249999999999 Q 9.338266479492187 1.9369499999999997 9.244516479492187 1.9369499999999997 Q 9.168016479492186 1.9369499999999997 9.107641479492187 1.9028249999999998 Q 9.047266479492187 1.8686999999999998 9.013516479492187 1.8079499999999997 Q 8.979766479492186 1.7471999999999999 8.979766479492186 1.6691999999999998 Q 8.979766479492186 1.5911999999999997 9.013516479492187 1.5300749999999999 M 9.703909423828126 1.9039499999999998 Q 9.642034423828125 1.8694499999999998 9.605659423828126 1.8075749999999997 Q 9.569284423828124 1.7456999999999998 9.569284423828124 1.6684499999999998 Q 9.569284423828124 1.5911999999999997 9.605659423828126 1.5296999999999998 Q 9.642034423828125 1.4681999999999997 9.703909423828126 1.4336999999999998 Q 9.765784423828125 1.3991999999999998 9.840034423828126 1.3991999999999998 Q 9.914284423828125 1.3991999999999998 9.976159423828125 1.4336999999999998 Q 10.038034423828124 1.4681999999999997 10.073659423828126 1.5296999999999998 Q 10.109284423828125 1.5911999999999997 10.109284423828125 1.6684499999999998 Q 10.109284423828125 1.7456999999999998 10.073284423828126 1.8075749999999997 Q 10.037284423828126 1.8694499999999998 9.975784423828125 1.9039499999999998 Q 9.914284423828125 1.9384499999999998 9.840034423828126 1.9384499999999998 Q 9.765784423828125 1.9384499999999998 9.703909423828126 1.9039499999999998 M 9.940909423828126 1.7794499999999998 Q 9.978784423828126 1.7374499999999997 9.978784423828126 1.6684499999999998 Q 9.978784423828126 1.5986999999999998 9.940909423828126 1.5570749999999998 Q 9.903034423828124 1.5154499999999997 9.840034423828126 1.5154499999999997 Q 9.776284423828125 1.5154499999999997 9.738409423828125 1.5566999999999998 Q 9.700534423828126 1.5979499999999998 9.700534423828126 1.6684499999999998 Q 9.700534423828126 1.7381999999999997 9.738409423828125 1.7798249999999998 Q 9.776284423828125 1.8214499999999998 9.840034423828126 1.8214499999999998 Q 9.903034423828124 1.8214499999999998 9.940909423828126 1.7794499999999998 M 10.311417480468752 1.9039499999999998 Q 10.249542480468751 1.8694499999999998 10.213167480468751 1.8075749999999997 Q 10.17679248046875 1.7456999999999998 10.17679248046875 1.6684499999999998 Q 10.17679248046875 1.5911999999999997 10.213167480468751 1.5296999999999998 Q 10.249542480468751 1.4681999999999997 10.311417480468752 1.4336999999999998 Q 10.37329248046875 1.3991999999999998 10.447542480468751 1.3991999999999998 Q 10.52179248046875 1.3991999999999998 10.583667480468751 1.4336999999999998 Q 10.64554248046875 1.4681999999999997 10.681167480468751 1.5296999999999998 Q 10.71679248046875 1.5911999999999997 10.71679248046875 1.6684499999999998 Q 10.71679248046875 1.7456999999999998 10.680792480468751 1.8075749999999997 Q 10.644792480468752 1.8694499999999998 10.583292480468751 1.9039499999999998 Q 10.52179248046875 1.9384499999999998 10.447542480468751 1.9384499999999998 Q 10.37329248046875 1.9384499999999998 10.311417480468752 1.9039499999999998 M 10.548417480468752 1.7794499999999998 Q 10.586292480468751 1.7374499999999997 10.586292480468751 1.6684499999999998 Q 10.586292480468751 1.5986999999999998 10.548417480468752 1.5570749999999998 Q 10.51054248046875 1.5154499999999997 10.447542480468751 1.5154499999999997 Q 10.38379248046875 1.5154499999999997 10.345917480468751 1.5566999999999998 Q 10.308042480468751 1.5979499999999998 10.308042480468751 1.6684499999999998 Q 10.308042480468751 1.7381999999999997 10.345917480468751 1.7798249999999998 Q 10.38379248046875 1.8214499999999998 10.447542480468751 1.8214499999999998 Q 10.51054248046875 1.8214499999999998 10.548417480468752 1.7794499999999998 M 11.074550537109376 1.9331999999999998 L 10.965050537109377 1.7344499999999998 L 10.934300537109376 1.7344499999999998 L 10.934300537109376 1.9331999999999998 L 10.806050537109376 1.9331999999999998 L 10.806050537109376 1.4066999999999998 L 11.021300537109376 1.4066999999999998 Q 11.083550537109376 1.4066999999999998 11.127425537109376 1.4284499999999998 Q 11.171300537109376 1.4501999999999997 11.193050537109377 1.4880749999999998 Q 11.214800537109376 1.52595 11.214800537109376 1.57245 Q 11.214800537109376 1.6249499999999997 11.185175537109377 1.6662 Q 11.155550537109377 1.7074499999999997 11.097800537109377 1.7247 L 11.219300537109376 1.9331999999999998 L 11.074550537109376 1.9331999999999998 M 10.934300537109376 1.6437 L 11.013800537109377 1.6437 Q 11.049050537109377 1.6437 11.066675537109376 1.6264499999999997 Q 11.084300537109376 1.6091999999999997 11.084300537109376 1.5776999999999999 Q 11.084300537109376 1.5476999999999999 11.066675537109376 1.5304499999999999 Q 11.049050537109377 1.5131999999999999 11.013800537109377 1.5131999999999999 L 10.934300537109376 1.5131999999999999 L 10.934300537109376 1.6437 M 11.655783691406253 1.4396999999999998 Q 11.718033691406252 1.4726999999999997 11.752158691406253 1.5323249999999997 Q 11.786283691406252 1.5919499999999998 11.786283691406252 1.6699499999999998 Q 11.786283691406252 1.7471999999999999 11.752158691406253 1.8072 Q 11.718033691406252 1.8671999999999997 11.655408691406253 1.9002 Q 11.592783691406252 1.9331999999999998 11.510283691406253 1.9331999999999998 L 11.313033691406252 1.9331999999999998 L 11.313033691406252 1.4066999999999998 L 11.510283691406253 1.4066999999999998 Q 11.593533691406252 1.4066999999999998 11.655783691406253 1.4396999999999998 M 11.615283691406253 1.7824499999999999 Q 11.655783691406253 1.7426999999999997 11.655783691406253 1.6699499999999998 Q 11.655783691406253 1.5971999999999997 11.615283691406253 1.5566999999999998 Q 11.574783691406251 1.5161999999999998 11.502033691406252 1.5161999999999998 L 11.441283691406252 1.5161999999999998 L 11.441283691406252 1.8221999999999998 L 11.502033691406252 1.8221999999999998 Q 11.574783691406251 1.8221999999999998 11.615283691406253 1.7824499999999999 M 12.004526000976565 1.4066999999999998 L 12.004526000976565 1.9331999999999998 L 11.876276000976565 1.9331999999999998 L 11.876276000976565 1.4066999999999998 L 12.004526000976565 1.4066999999999998 M 12.586513183593754 1.9331999999999998 L 12.458263183593754 1.9331999999999998 L 12.243763183593753 1.60845 L 12.243763183593753 1.9331999999999998 L 12.115513183593754 1.9331999999999998 L 12.115513183593754 1.4066999999999998 L 12.243763183593753 1.4066999999999998 L 12.458263183593754 1.7329499999999998 L 12.458263183593754 1.4066999999999998 L 12.586513183593754 1.4066999999999998 L 12.586513183593754 1.9331999999999998 M 13.025273803710942 1.8401999999999998 L 12.828773803710941 1.8401999999999998 L 12.797273803710942 1.9331999999999998 L 12.663023803710942 1.9331999999999998 L 12.853523803710942 1.4066999999999998 L 13.002023803710943 1.4066999999999998 L 13.192523803710941 1.9331999999999998 L 13.056773803710941 1.9331999999999998 L 13.025273803710942 1.8401999999999998 M 12.992273803710942 1.7411999999999999 L 12.927023803710942 1.5484499999999999 L 12.86252380371094 1.7411999999999999 L 12.992273803710942 1.7411999999999999 M 13.647023437500005 1.4066999999999998 L 13.647023437500005 1.5094499999999997 L 13.507523437500005 1.5094499999999997 L 13.507523437500005 1.9331999999999998 L 13.379273437500006 1.9331999999999998 L 13.379273437500006 1.5094499999999997 L 13.239773437500006 1.5094499999999997 L 13.239773437500006 1.4066999999999998 L 13.647023437500005 1.4066999999999998 M 13.857776000976568 1.4066999999999998 L 13.857776000976568 1.9331999999999998 L 13.729526000976568 1.9331999999999998 L 13.729526000976568 1.4066999999999998 L 13.857776000976568 1.4066999999999998 M 14.081638183593757 1.9039499999999998 Q 14.019763183593756 1.8694499999999998 13.983388183593757 1.8075749999999997 Q 13.947013183593755 1.7456999999999998 13.947013183593755 1.6684499999999998 Q 13.947013183593755 1.5911999999999997 13.983388183593757 1.5296999999999998 Q 14.019763183593756 1.4681999999999997 14.081638183593757 1.4336999999999998 Q 14.143513183593756 1.3991999999999998 14.217763183593757 1.3991999999999998 Q 14.292013183593756 1.3991999999999998 14.353888183593757 1.4336999999999998 Q 14.415763183593755 1.4681999999999997 14.451388183593757 1.5296999999999998 Q 14.487013183593756 1.5911999999999997 14.487013183593756 1.6684499999999998 Q 14.487013183593756 1.7456999999999998 14.451013183593757 1.8075749999999997 Q 14.415013183593757 1.8694499999999998 14.353513183593757 1.9039499999999998 Q 14.292013183593756 1.9384499999999998 14.217763183593757 1.9384499999999998 Q 14.143513183593756 1.9384499999999998 14.081638183593757 1.9039499999999998 M 14.318638183593757 1.7794499999999998 Q 14.356513183593757 1.7374499999999997 14.356513183593757 1.6684499999999998 Q 14.356513183593757 1.5986999999999998 14.318638183593757 1.5570749999999998 Q 14.280763183593756 1.5154499999999997 14.217763183593757 1.5154499999999997 Q 14.154013183593756 1.5154499999999997 14.116138183593756 1.5566999999999998 Q 14.078263183593757 1.5979499999999998 14.078263183593757 1.6684499999999998 Q 14.078263183593757 1.7381999999999997 14.116138183593756 1.7798249999999998 Q 14.154013183593756 1.8214499999999998 14.217763183593757 1.8214499999999998 Q 14.280763183593756 1.8214499999999998 14.318638183593757 1.7794499999999998 M 15.047271240234382 1.9331999999999998 L 14.919021240234382 1.9331999999999998 L 14.704521240234381 1.60845 L 14.704521240234381 1.9331999999999998 L 14.576271240234382 1.9331999999999998 L 14.576271240234382 1.4066999999999998 L 14.704521240234381 1.4066999999999998 L 14.919021240234382 1.7329499999999998 L 14.919021240234382 1.4066999999999998 L 15.047271240234382 1.4066999999999998 L 15.047271240234382 1.9331999999999998 M 15.714013183593758 1.4066999999999998 L 15.714013183593758 1.5094499999999997 L 15.574513183593758 1.5094499999999997 L 15.574513183593758 1.9331999999999998 L 15.446263183593759 1.9331999999999998 L 15.446263183593759 1.5094499999999997 L 15.306763183593759 1.5094499999999997 L 15.306763183593759 1.4066999999999998 L 15.714013183593758 1.4066999999999998 M 15.909390747070322 1.9039499999999998 Q 15.847515747070322 1.8694499999999998 15.811140747070322 1.8075749999999997 Q 15.77476574707032 1.7456999999999998 15.77476574707032 1.6684499999999998 Q 15.77476574707032 1.5911999999999997 15.811140747070322 1.5296999999999998 Q 15.847515747070322 1.4681999999999997 15.909390747070322 1.4336999999999998 Q 15.971265747070321 1.3991999999999998 16.045515747070322 1.3991999999999998 Q 16.11976574707032 1.3991999999999998 16.181640747070322 1.4336999999999998 Q 16.243515747070322 1.4681999999999997 16.279140747070322 1.5296999999999998 Q 16.31476574707032 1.5911999999999997 16.31476574707032 1.6684499999999998 Q 16.31476574707032 1.7456999999999998 16.27876574707032 1.8075749999999997 Q 16.242765747070322 1.8694499999999998 16.18126574707032 1.9039499999999998 Q 16.11976574707032 1.9384499999999998 16.045515747070322 1.9384499999999998 Q 15.971265747070321 1.9384499999999998 15.909390747070322 1.9039499999999998 M 16.14639074707032 1.7794499999999998 Q 16.18426574707032 1.7374499999999997 16.18426574707032 1.6684499999999998 Q 16.18426574707032 1.5986999999999998 16.14639074707032 1.5570749999999998 Q 16.10851574707032 1.5154499999999997 16.045515747070322 1.5154499999999997 Q 15.981765747070321 1.5154499999999997 15.943890747070322 1.5566999999999998 Q 15.906015747070322 1.5979499999999998 15.906015747070322 1.6684499999999998 Q 15.906015747070322 1.7381999999999997 15.943890747070322 1.7798249999999998 Q 15.981765747070321 1.8214499999999998 16.045515747070322 1.8214499999999998 Q 16.10851574707032 1.8214499999999998 16.14639074707032 1.7794499999999998 M 16.516898803710948 1.9039499999999998 Q 16.455023803710947 1.8694499999999998 16.418648803710948 1.8075749999999997 Q 16.382273803710948 1.7456999999999998 16.382273803710948 1.6684499999999998 Q 16.382273803710948 1.5911999999999997 16.418648803710948 1.5296999999999998 Q 16.455023803710947 1.4681999999999997 16.516898803710948 1.4336999999999998 Q 16.57877380371095 1.3991999999999998 16.653023803710948 1.3991999999999998 Q 16.727273803710947 1.3991999999999998 16.789148803710948 1.4336999999999998 Q 16.851023803710948 1.4681999999999997 16.886648803710948 1.5296999999999998 Q 16.922273803710947 1.5911999999999997 16.922273803710947 1.6684499999999998 Q 16.922273803710947 1.7456999999999998 16.886273803710946 1.8075749999999997 Q 16.850273803710948 1.8694499999999998 16.788773803710946 1.9039499999999998 Q 16.727273803710947 1.9384499999999998 16.653023803710948 1.9384499999999998 Q 16.57877380371095 1.9384499999999998 16.516898803710948 1.9039499999999998 M 16.753898803710946 1.7794499999999998 Q 16.791773803710946 1.7374499999999997 16.791773803710946 1.6684499999999998 Q 16.791773803710946 1.5986999999999998 16.753898803710946 1.5570749999999998 Q 16.716023803710947 1.5154499999999997 16.653023803710948 1.5154499999999997 Q 16.58927380371095 1.5154499999999997 16.551398803710946 1.5566999999999998 Q 16.513523803710946 1.5979499999999998 16.513523803710946 1.6684499999999998 Q 16.513523803710946 1.7381999999999997 16.551398803710946 1.7798249999999998 Q 16.58927380371095 1.8214499999999998 16.653023803710948 1.8214499999999998 Q 16.716023803710947 1.8214499999999998 16.753898803710946 1.7794499999999998 M 17.139781860351572 1.8341999999999998 L 17.30778186035157 1.8341999999999998 L 17.30778186035157 1.9331999999999998 L 17.011531860351575 1.9331999999999998 L 17.011531860351575 1.4066999999999998 L 17.139781860351572 1.4066999999999998 L 17.139781860351572 1.8341999999999998 M 17.392149169921886 1.9193249999999997 Q 17.370774169921887 1.8994499999999999 17.370774169921887 1.8701999999999999 Q 17.370774169921887 1.8401999999999998 17.392149169921886 1.8199499999999997 Q 17.413524169921885 1.7996999999999999 17.447274169921887 1.7996999999999999 Q 17.480274169921888 1.7996999999999999 17.501649169921887 1.8199499999999997 Q 17.523024169921886 1.8401999999999998 17.523024169921886 1.8701999999999999 Q 17.523024169921886 1.8994499999999999 17.501649169921887 1.9193249999999997 Q 17.480274169921888 1.9391999999999998 17.447274169921887 1.9391999999999998 Q 17.413524169921885 1.9391999999999998 17.392149169921886 1.9193249999999997" fill="#f9b200" fill-rule="nonzero"></path></g></g><defs><clipPath id="SvgjsClipPath28368"><path d=" M -3.63187573106563 -1.0609572652825372 h 3.2318757310656303 v 4.055114530565074 h -3.2318757310656303 Z"></path></clipPath><clipPath id="SvgjsClipPath283662cdb91d7-b745-4e61-aafd-df73b1dba0ef"><path d=" M -3.63187573106563 -1.0609572652825372 L -0.3999999999999999 -1.0609572652825372 L -0.3999999999999999 2.994157265282537 L -3.63187573106563 2.994157265282537 Z"></path></clipPath></defs></svg>